<?xml version="1.0" standalone="no"?>
<!DOCTYPE svg PUBLIC "-//W3C//DTD SVG 20010904//EN"
 "http://www.w3.org/TR/2001/REC-SVG-20010904/DTD/svg10.dtd">
<svg version="1.0" xmlns="http://www.w3.org/2000/svg"
 width="907.000000pt" height="209.000000pt" viewBox="0 0 907.000000 209.000000"
 preserveAspectRatio="xMidYMid meet">
<metadata>
Created by potrace 1.16, written by Peter Selinger 2001-2019
</metadata>
<g transform="translate(0.000000,209.000000) scale(0.100000,-0.100000)"
fill="#000000" stroke="none">
<path d="M3970 1125 l0 -665 114 0 115 0 3 277 c3 263 4 280 25 319 33 62 81
103 141 120 114 34 216 -16 247 -120 12 -38 15 -111 15 -323 l0 -273 115 0
115 0 0 288 c0 304 -7 371 -45 457 -60 136 -218 209 -381 175 -81 -17 -128
-43 -185 -103 l-49 -50 0 281 0 282 -115 0 -115 0 0 -665z"/>
<path d="M8050 1125 l0 -665 115 0 115 0 0 266 c0 289 4 320 52 379 45 54 101
79 178 79 95 0 141 -29 177 -109 15 -34 18 -81 21 -328 l4 -287 110 0 109 0
-3 333 c-3 323 -4 334 -27 392 -16 39 -42 77 -75 111 -67 66 -130 89 -246 89
-110 -1 -189 -34 -256 -108 l-44 -49 0 281 0 281 -115 0 -115 0 0 -665z"/>
<path d="M100 1110 l0 -650 115 0 115 0 0 250 0 250 148 0 c172 0 257 12 331
46 88 40 136 86 178 171 37 74 38 81 38 182 0 98 -2 111 -31 171 -43 92 -84
134 -167 175 -98 47 -161 55 -464 55 l-263 0 0 -650z m565 449 c97 -27 150
-136 125 -256 -15 -69 -64 -125 -125 -142 -22 -6 -106 -11 -187 -11 l-148 0 0
210 0 210 148 0 c81 0 165 -5 187 -11z"/>
<path d="M7386 1593 c-3 -16 -8 -53 -11 -83 -3 -30 -8 -72 -11 -92 l-6 -38
-79 0 -79 0 0 -100 0 -100 79 0 79 0 4 -257 3 -258 30 -60 c52 -104 116 -134
308 -142 l127 -6 0 100 0 100 -88 5 c-97 6 -127 18 -142 62 -5 16 -10 123 -10
242 l0 214 125 0 125 0 0 100 0 100 -125 0 -125 0 0 120 0 120 -99 0 -99 0 -6
-27z"/>
<path d="M1694 1380 c-84 -17 -177 -80 -230 -154 l-21 -29 -7 59 c-4 32 -10
74 -13 92 l-5 32 -99 0 -99 0 0 -460 0 -460 115 0 115 0 0 246 c0 164 4 260
12 287 28 93 122 147 255 147 l63 0 0 125 c0 141 6 133 -86 115z"/>
<path d="M2245 1379 c-152 -31 -277 -140 -300 -262 l-7 -37 109 0 110 0 24 38
c33 52 97 82 173 82 111 0 186 -60 186 -149 l0 -41 -142 0 c-233 0 -329 -25
-406 -103 -53 -55 -74 -107 -74 -184 0 -48 6 -76 26 -117 49 -101 144 -149
296 -150 130 -1 184 18 260 94 l58 58 6 -46 c4 -26 9 -59 12 -75 l6 -27 94 0
94 0 0 318 c0 354 -4 387 -63 464 -41 54 -113 103 -180 123 -66 20 -217 27
-282 14z m289 -546 c-31 -129 -112 -203 -222 -203 -63 0 -113 19 -136 51 -23
33 -20 91 6 124 36 46 70 54 221 55 l137 0 -6 -27z"/>
<path d="M3234 1376 c-70 -16 -108 -34 -153 -72 -71 -60 -108 -177 -81 -258
30 -92 108 -138 327 -193 194 -48 231 -81 187 -164 -27 -53 -123 -74 -216 -49
-34 10 -108 78 -108 100 0 6 -45 10 -115 10 -134 0 -134 1 -85 -98 36 -72 82
-114 163 -153 138 -65 352 -61 467 9 181 111 187 348 11 436 -25 13 -101 38
-168 55 -158 41 -202 57 -230 83 -31 29 -29 51 6 90 29 32 32 33 109 33 89 0
125 -16 150 -68 13 -27 14 -27 118 -27 101 0 104 1 104 23 0 40 -46 121 -92
163 -25 23 -71 51 -104 63 -75 29 -206 36 -290 17z"/>
<path d="M5384 1375 c-124 -27 -216 -92 -263 -187 -17 -33 -31 -72 -31 -85 0
-23 1 -23 110 -23 61 0 110 4 110 9 0 5 12 24 27 42 73 86 235 94 312 15 27
-27 35 -45 39 -84 l4 -50 -183 -5 c-129 -3 -199 -9 -234 -21 -159 -50 -242
-187 -201 -329 34 -116 113 -179 255 -199 141 -21 240 9 327 99 l52 53 6 -57
c12 -99 5 -93 112 -93 l94 0 0 313 c0 337 -5 378 -55 457 -79 126 -285 188
-481 145z m289 -567 c-33 -114 -110 -178 -211 -178 -99 0 -152 40 -152 115 1
89 53 114 242 115 l137 0 -16 -52z"/>
<path d="M6594 1379 c-63 -14 -145 -69 -184 -122 l-35 -48 -8 63 c-16 119 -4
108 -117 108 l-100 0 0 -460 0 -460 115 0 115 0 0 253 c0 138 5 272 11 297 27
118 138 193 259 174 56 -9 100 -41 130 -94 25 -45 25 -47 28 -337 l3 -293 115
0 115 0 -3 323 c-4 305 -5 325 -27 384 -26 71 -94 154 -150 182 -73 37 -180
49 -267 30z"/>
</g>
</svg>
